<?xml version="1.0" encoding="us-ascii" standalone="no"?><svg xmlns="http://www.w3.org/2000/svg" xmlns:xlink="http://www.w3.org/1999/xlink" contentStyleType="text/css" height="347px" preserveAspectRatio="none" style="width:544px;height:347px;background:#FFFFFF;" version="1.1" viewBox="0 0 544 347" width="544px" zoomAndPan="magnify"><defs/><g><!--cluster commands--><g id="cluster_commands"><path d="M8.5,6 L87.5,6 A3.75,3.75 0 0 1 90,8.5 L97,28.4883 L534.5,28.4883 A2.5,2.5 0 0 1 537,30.9883 L537,337.5 A2.5,2.5 0 0 1 534.5,340 L8.5,340 A2.5,2.5 0 0 1 6,337.5 L6,8.5 A2.5,2.5 0 0 1 8.5,6 " fill="none" style="stroke:#000000;stroke-width:1.5;"/><line style="stroke:#000000;stroke-width:1.5;" x1="6" x2="97" y1="28.4883" y2="28.4883"/><text fill="#000000" font-family="sans-serif" font-size="14" font-weight="bold" lengthAdjust="spacing" textLength="78" x="10" y="21.5352">commands</text></g><!--cluster exceptions;--><g id="cluster_exceptions;"><path d="M32.5,49 L113.5,49 A3.75,3.75 0 0 1 116,51.5 L123,71.4883 L510.5,71.4883 A2.5,2.5 0 0 1 513,73.9883 L513,313.5 A2.5,2.5 0 0 1 510.5,316 L32.5,316 A2.5,2.5 0 0 1 30,313.5 L30,51.5 A2.5,2.5 0 0 1 32.5,49 " fill="none" style="stroke:#000000;stroke-width:1.5;"/><line style="stroke:#000000;stroke-width:1.5;" x1="30" x2="123" y1="71.4883" y2="71.4883"/><text fill="#000000" font-family="sans-serif" font-size="14" font-weight="bold" lengthAdjust="spacing" textLength="80" x="34" y="64.5352">exceptions;</text></g><!--class CommandException--><g id="elem_CommandException"><rect codeLine="2" fill="#F1F1F1" height="32" id="CommandException" rx="2.5" ry="2.5" style="stroke:#181818;stroke-width:0.5;" width="171" x="187.5" y="84"/><ellipse cx="202.5" cy="100" fill="#ADD1B2" rx="11" ry="11" style="stroke:#181818;stroke-width:1.0;"/><path d="M205.4731,105.6431 Q204.8921,105.9419 204.2529,106.0913 Q203.6138,106.2407 202.9082,106.2407 Q200.4014,106.2407 199.0815,104.5889 Q197.7617,102.937 197.7617,99.8159 Q197.7617,96.6865 199.0815,95.0347 Q200.4014,93.3828 202.9082,93.3828 Q203.6138,93.3828 204.2612,93.5322 Q204.9087,93.6816 205.4731,93.9805 L205.4731,96.7031 Q204.8423,96.1221 204.2488,95.8523 Q203.6553,95.5825 203.0244,95.5825 Q201.6797,95.5825 200.9949,96.6492 Q200.3101,97.7158 200.3101,99.8159 Q200.3101,101.9077 200.9949,102.9744 Q201.6797,104.041 203.0244,104.041 Q203.6553,104.041 204.2488,103.7712 Q204.8423,103.5015 205.4731,102.9204 Z " fill="#000000"/><text fill="#000000" font-family="sans-serif" font-size="14" lengthAdjust="spacing" textLength="139" x="216.5" y="105.291">CommandException</text></g><!--class DuplicatedTaskException--><g id="elem_DuplicatedTaskException"><rect codeLine="3" fill="#F1F1F1" height="32" id="DuplicatedTaskException" rx="2.5" ry="2.5" style="stroke:#181818;stroke-width:0.5;" width="205" x="292.5" y="176"/><ellipse cx="307.5" cy="192" fill="#ADD1B2" rx="11" ry="11" style="stroke:#181818;stroke-width:1.0;"/><path d="M310.4731,197.6431 Q309.8921,197.9419 309.2529,198.0913 Q308.6138,198.2407 307.9082,198.2407 Q305.4014,198.2407 304.0815,196.5889 Q302.7617,194.937 302.7617,191.8159 Q302.7617,188.6865 304.0815,187.0347 Q305.4014,185.3828 307.9082,185.3828 Q308.6138,185.3828 309.2612,185.5322 Q309.9087,185.6816 310.4731,185.9805 L310.4731,188.7031 Q309.8423,188.1221 309.2488,187.8523 Q308.6553,187.5825 308.0244,187.5825 Q306.6797,187.5825 305.9949,188.6492 Q305.3101,189.7158 305.3101,191.8159 Q305.3101,193.9077 305.9949,194.9744 Q306.6797,196.041 308.0244,196.041 Q308.6553,196.041 309.2488,195.7712 Q309.8423,195.5015 310.4731,194.9204 Z " fill="#000000"/><text fill="#000000" font-family="sans-serif" font-size="14" lengthAdjust="spacing" textLength="173" x="321.5" y="197.291">DuplicatedTaskException</text></g><!--class IllegalCommandException--><g id="elem_IllegalCommandException"><rect codeLine="4" fill="#F1F1F1" height="32" id="IllegalCommandException" rx="2.5" ry="2.5" style="stroke:#181818;stroke-width:0.5;" width="212" x="46" y="176"/><ellipse cx="61" cy="192" fill="#ADD1B2" rx="11" ry="11" style="stroke:#181818;stroke-width:1.0;"/><path d="M63.9731,197.6431 Q63.3921,197.9419 62.7529,198.0913 Q62.1138,198.2407 61.4082,198.2407 Q58.9014,198.2407 57.5815,196.5889 Q56.2617,194.937 56.2617,191.8159 Q56.2617,188.6865 57.5815,187.0347 Q58.9014,185.3828 61.4082,185.3828 Q62.1138,185.3828 62.7612,185.5322 Q63.4087,185.6816 63.9731,185.9805 L63.9731,188.7031 Q63.3423,188.1221 62.7488,187.8523 Q62.1553,187.5825 61.5244,187.5825 Q60.1797,187.5825 59.4949,188.6492 Q58.8101,189.7158 58.8101,191.8159 Q58.8101,193.9077 59.4949,194.9744 Q60.1797,196.041 61.5244,196.041 Q62.1553,196.041 62.7488,195.7712 Q63.3423,195.5015 63.9731,194.9204 Z " fill="#000000"/><text fill="#000000" font-family="sans-serif" font-size="14" lengthAdjust="spacing" textLength="180" x="75" y="197.291">IllegalCommandException</text></g><!--class IllegalTaskIndexException--><g id="elem_IllegalTaskIndexException"><rect codeLine="5" fill="#F1F1F1" height="32" id="IllegalTaskIndexException" rx="2.5" ry="2.5" style="stroke:#181818;stroke-width:0.5;" width="212" x="46" y="268"/><ellipse cx="61" cy="284" fill="#ADD1B2" rx="11" ry="11" style="stroke:#181818;stroke-width:1.0;"/><path d="M63.9731,289.6431 Q63.3921,289.9419 62.7529,290.0913 Q62.1138,290.2407 61.4082,290.2407 Q58.9014,290.2407 57.5815,288.5889 Q56.2617,286.937 56.2617,283.8159 Q56.2617,280.6865 57.5815,279.0347 Q58.9014,277.3828 61.4082,277.3828 Q62.1138,277.3828 62.7612,277.5322 Q63.4087,277.6816 63.9731,277.9805 L63.9731,280.7031 Q63.3423,280.1221 62.7488,279.8523 Q62.1553,279.5825 61.5244,279.5825 Q60.1797,279.5825 59.4949,280.6492 Q58.8101,281.7158 58.8101,283.8159 Q58.8101,285.9077 59.4949,286.9744 Q60.1797,288.041 61.5244,288.041 Q62.1553,288.041 62.7488,287.7712 Q63.3423,287.5015 63.9731,286.9204 Z " fill="#000000"/><text fill="#000000" font-family="sans-serif" font-size="14" lengthAdjust="spacing" textLength="180" x="75" y="289.291">IllegalTaskIndexException</text></g><!--reverse link CommandException to DuplicatedTaskException--><g id="link_CommandException_DuplicatedTaskException"><path codeLine="7" d="M308.4531,127.1583 C330.9331,143.7483 351.92,159.22 374.3,175.73 " fill="none" id="CommandException-backto-DuplicatedTaskException" style="stroke:#181818;stroke-width:1.0;"/><polygon fill="none" points="293.97,116.47,304.8903,131.986,312.0158,122.3307,293.97,116.47" style="stroke:#181818;stroke-width:1.0;"/></g><!--reverse link CommandException to IllegalCommandException--><g id="link_CommandException_IllegalCommandException"><path codeLine="8" d="M237.7581,127.214 C215.4581,143.804 194.72,159.22 172.53,175.73 " fill="none" id="CommandException-backto-IllegalCommandException" style="stroke:#181818;stroke-width:1.0;"/><polygon fill="none" points="252.2,116.47,234.1768,122.4,241.3395,132.0279,252.2,116.47" style="stroke:#181818;stroke-width:1.0;"/></g><!--reverse link IllegalCommandException to IllegalTaskIndexException--><g id="link_IllegalCommandException_IllegalTaskIndexException"><path codeLine="9" d="M152,226.27 C152,242.82 152,251.08 152,267.66 " fill="none" id="IllegalCommandException-backto-IllegalTaskIndexException" style="stroke:#181818;stroke-width:1.0;"/><polygon fill="none" points="152,208.27,146,226.27,158,226.27,152,208.27" style="stroke:#181818;stroke-width:1.0;"/></g><!--SRC=[AqXCpavCJrL8pi_DJSnBATPBhKXEBIZ9pCyhjgxcKW22v9p4uc85PuYyAqmMISgbj20dCpcn93Kb9B4u6viApvoSrFJ473ncG5M03F3CIqcjGAW1Ay9XXO9kQO5kZHrsn-6mb1WzcCw0wSBb4x3kZCoKL8NSrDoarA9Yhbe0]--></g></svg>
