<?xml version="1.0" encoding="us-ascii" standalone="no"?><svg xmlns="http://www.w3.org/2000/svg" xmlns:xlink="http://www.w3.org/1999/xlink" contentStyleType="text/css" height="347px" preserveAspectRatio="none" style="width:857px;height:347px;background:#FFFFFF;" version="1.1" viewBox="0 0 857 347" width="857px" zoomAndPan="magnify"><defs/><g><!--cluster parser--><g id="cluster_parser"><path d="M8.5,6 L54.5,6 A3.75,3.75 0 0 1 57,8.5 L64,28.4883 L847.5,28.4883 A2.5,2.5 0 0 1 850,30.9883 L850,337.5 A2.5,2.5 0 0 1 847.5,340 L8.5,340 A2.5,2.5 0 0 1 6,337.5 L6,8.5 A2.5,2.5 0 0 1 8.5,6 " fill="none" style="stroke:#000000;stroke-width:1.5;"/><line style="stroke:#000000;stroke-width:1.5;" x1="6" x2="64" y1="28.4883" y2="28.4883"/><text fill="#000000" font-family="sans-serif" font-size="14" font-weight="bold" lengthAdjust="spacing" textLength="45" x="10" y="21.5352">parser</text></g><!--cluster exceptions;--><g id="cluster_exceptions;"><path d="M32.5,49 L113.5,49 A3.75,3.75 0 0 1 116,51.5 L123,71.4883 L823.5,71.4883 A2.5,2.5 0 0 1 826,73.9883 L826,313.5 A2.5,2.5 0 0 1 823.5,316 L32.5,316 A2.5,2.5 0 0 1 30,313.5 L30,51.5 A2.5,2.5 0 0 1 32.5,49 " fill="none" style="stroke:#000000;stroke-width:1.5;"/><line style="stroke:#000000;stroke-width:1.5;" x1="30" x2="123" y1="71.4883" y2="71.4883"/><text fill="#000000" font-family="sans-serif" font-size="14" font-weight="bold" lengthAdjust="spacing" textLength="80" x="34" y="64.5352">exceptions;</text></g><!--class DuplicatedPrefixException--><g id="elem_DuplicatedPrefixException"><rect fill="#F1F1F1" height="32" id="DuplicatedPrefixException" rx="2.5" ry="2.5" style="stroke:#181818;stroke-width:0.5;" width="213" x="63.5" y="268"/><ellipse cx="78.5" cy="284" fill="#ADD1B2" rx="11" ry="11" style="stroke:#181818;stroke-width:1.0;"/><path d="M81.4731,289.6431 Q80.8921,289.9419 80.2529,290.0913 Q79.6138,290.2407 78.9082,290.2407 Q76.4014,290.2407 75.0815,288.5889 Q73.7617,286.937 73.7617,283.8159 Q73.7617,280.6865 75.0815,279.0347 Q76.4014,277.3828 78.9082,277.3828 Q79.6138,277.3828 80.2612,277.5322 Q80.9087,277.6816 81.4731,277.9805 L81.4731,280.7031 Q80.8423,280.1221 80.2488,279.8523 Q79.6553,279.5825 79.0244,279.5825 Q77.6797,279.5825 76.9949,280.6492 Q76.3101,281.7158 76.3101,283.8159 Q76.3101,285.9077 76.9949,286.9744 Q77.6797,288.041 79.0244,288.041 Q79.6553,288.041 80.2488,287.7712 Q80.8423,287.5015 81.4731,286.9204 Z " fill="#000000"/><text fill="#000000" font-family="sans-serif" font-size="14" lengthAdjust="spacing" textLength="181" x="92.5" y="289.291">DuplicatedPrefixException</text></g><!--class ParseException--><g id="elem_ParseException"><rect fill="#F1F1F1" height="32" id="ParseException" rx="2.5" ry="2.5" style="stroke:#181818;stroke-width:0.5;" width="137" x="367.5" y="84"/><ellipse cx="382.5" cy="100" fill="#ADD1B2" rx="11" ry="11" style="stroke:#181818;stroke-width:1.0;"/><path d="M385.4731,105.6431 Q384.8921,105.9419 384.2529,106.0913 Q383.6138,106.2407 382.9082,106.2407 Q380.4014,106.2407 379.0815,104.5889 Q377.7617,102.937 377.7617,99.8159 Q377.7617,96.6865 379.0815,95.0347 Q380.4014,93.3828 382.9082,93.3828 Q383.6138,93.3828 384.2612,93.5322 Q384.9087,93.6816 385.4731,93.9805 L385.4731,96.7031 Q384.8423,96.1221 384.2488,95.8523 Q383.6553,95.5825 383.0244,95.5825 Q381.6797,95.5825 380.9949,96.6492 Q380.3101,97.7158 380.3101,99.8159 Q380.3101,101.9077 380.9949,102.9744 Q381.6797,104.041 383.0244,104.041 Q383.6553,104.041 384.2488,103.7712 Q384.8423,103.5015 385.4731,102.9204 Z " fill="#000000"/><text fill="#000000" font-family="sans-serif" font-size="14" lengthAdjust="spacing" textLength="105" x="396.5" y="105.291">ParseException</text></g><!--class IllegalArgumentException--><g id="elem_IllegalArgumentException"><rect fill="#F1F1F1" height="32" id="IllegalArgumentException" rx="2.5" ry="2.5" style="stroke:#181818;stroke-width:0.5;" width="210" x="83" y="176"/><ellipse cx="98" cy="192" fill="#ADD1B2" rx="11" ry="11" style="stroke:#181818;stroke-width:1.0;"/><path d="M100.9731,197.6431 Q100.3921,197.9419 99.7529,198.0913 Q99.1138,198.2407 98.4082,198.2407 Q95.9014,198.2407 94.5815,196.5889 Q93.2617,194.937 93.2617,191.8159 Q93.2617,188.6865 94.5815,187.0347 Q95.9014,185.3828 98.4082,185.3828 Q99.1138,185.3828 99.7612,185.5322 Q100.4087,185.6816 100.9731,185.9805 L100.9731,188.7031 Q100.3423,188.1221 99.7488,187.8523 Q99.1553,187.5825 98.5244,187.5825 Q97.1797,187.5825 96.4949,188.6492 Q95.8101,189.7158 95.8101,191.8159 Q95.8101,193.9077 96.4949,194.9744 Q97.1797,196.041 98.5244,196.041 Q99.1553,196.041 99.7488,195.7712 Q100.3423,195.5015 100.9731,194.9204 Z " fill="#000000"/><text fill="#000000" font-family="sans-serif" font-size="14" lengthAdjust="spacing" textLength="178" x="112" y="197.291">IllegalArgumentException</text></g><!--class InvalidCommandException--><g id="elem_InvalidCommandException"><rect fill="#F1F1F1" height="32" id="InvalidCommandException" rx="2.5" ry="2.5" style="stroke:#181818;stroke-width:0.5;" width="216" x="328" y="176"/><ellipse cx="343" cy="192" fill="#ADD1B2" rx="11" ry="11" style="stroke:#181818;stroke-width:1.0;"/><path d="M345.9731,197.6431 Q345.3921,197.9419 344.7529,198.0913 Q344.1138,198.2407 343.4082,198.2407 Q340.9014,198.2407 339.5815,196.5889 Q338.2617,194.937 338.2617,191.8159 Q338.2617,188.6865 339.5815,187.0347 Q340.9014,185.3828 343.4082,185.3828 Q344.1138,185.3828 344.7612,185.5322 Q345.4087,185.6816 345.9731,185.9805 L345.9731,188.7031 Q345.3423,188.1221 344.7488,187.8523 Q344.1553,187.5825 343.5244,187.5825 Q342.1797,187.5825 341.4949,188.6492 Q340.8101,189.7158 340.8101,191.8159 Q340.8101,193.9077 341.4949,194.9744 Q342.1797,196.041 343.5244,196.041 Q344.1553,196.041 344.7488,195.7712 Q345.3423,195.5015 345.9731,194.9204 Z " fill="#000000"/><text fill="#000000" font-family="sans-serif" font-size="14" lengthAdjust="spacing" textLength="184" x="357" y="197.291">InvalidCommandException</text></g><!--class InvalidFormatException--><g id="elem_InvalidFormatException"><rect fill="#F1F1F1" height="32" id="InvalidFormatException" rx="2.5" ry="2.5" style="stroke:#181818;stroke-width:0.5;" width="194" x="579" y="176"/><ellipse cx="594" cy="192" fill="#ADD1B2" rx="11" ry="11" style="stroke:#181818;stroke-width:1.0;"/><path d="M596.9731,197.6431 Q596.3921,197.9419 595.7529,198.0913 Q595.1138,198.2407 594.4082,198.2407 Q591.9014,198.2407 590.5815,196.5889 Q589.2617,194.937 589.2617,191.8159 Q589.2617,188.6865 590.5815,187.0347 Q591.9014,185.3828 594.4082,185.3828 Q595.1138,185.3828 595.7612,185.5322 Q596.4087,185.6816 596.9731,185.9805 L596.9731,188.7031 Q596.3423,188.1221 595.7488,187.8523 Q595.1553,187.5825 594.5244,187.5825 Q593.1797,187.5825 592.4949,188.6492 Q591.8101,189.7158 591.8101,191.8159 Q591.8101,193.9077 592.4949,194.9744 Q593.1797,196.041 594.5244,196.041 Q595.1553,196.041 595.7488,195.7712 Q596.3423,195.5015 596.9731,194.9204 Z " fill="#000000"/><text fill="#000000" font-family="sans-serif" font-size="14" lengthAdjust="spacing" textLength="162" x="608" y="197.291">InvalidFormatException</text></g><!--class NoRecordedModificationException--><g id="elem_NoRecordedModificationException"><rect fill="#F1F1F1" height="32" id="NoRecordedModificationException" rx="2.5" ry="2.5" style="stroke:#181818;stroke-width:0.5;" width="269" x="541.5" y="268"/><ellipse cx="556.5" cy="284" fill="#ADD1B2" rx="11" ry="11" style="stroke:#181818;stroke-width:1.0;"/><path d="M559.4731,289.6431 Q558.8921,289.9419 558.2529,290.0913 Q557.6138,290.2407 556.9082,290.2407 Q554.4014,290.2407 553.0815,288.5889 Q551.7617,286.937 551.7617,283.8159 Q551.7617,280.6865 553.0815,279.0347 Q554.4014,277.3828 556.9082,277.3828 Q557.6138,277.3828 558.2612,277.5322 Q558.9087,277.6816 559.4731,277.9805 L559.4731,280.7031 Q558.8423,280.1221 558.2488,279.8523 Q557.6553,279.5825 557.0244,279.5825 Q555.6797,279.5825 554.9949,280.6492 Q554.3101,281.7158 554.3101,283.8159 Q554.3101,285.9077 554.9949,286.9744 Q555.6797,288.041 557.0244,288.041 Q557.6553,288.041 558.2488,287.7712 Q558.8423,287.5015 559.4731,286.9204 Z " fill="#000000"/><text fill="#000000" font-family="sans-serif" font-size="14" lengthAdjust="spacing" textLength="237" x="570.5" y="289.291">NoRecordedModificationException</text></g><!--reverse link ParseException to DuplicatedPrefixException--><g id="link_ParseException_DuplicatedPrefixException"><path codeLine="2" d="M349.2663,106.0902 C252.6963,113.0302 102.45,130.22 65,176 C36.49,210.85 94.46,247.46 135.05,267.54 " fill="none" id="ParseException-backto-DuplicatedPrefixException" style="stroke:#181818;stroke-width:1.0;"/><polygon fill="none" points="367.22,104.8,348.8362,100.1057,349.6964,112.0748,367.22,104.8" style="stroke:#181818;stroke-width:1.0;"/></g><!--reverse link ParseException to IllegalArgumentException--><g id="link_ParseException_IllegalArgumentException"><path codeLine="3" d="M376.45,122.6112 C330.88,139.1512 276,159.06 230.49,175.58 " fill="none" id="ParseException-backto-IllegalArgumentException" style="stroke:#181818;stroke-width:1.0;"/><polygon fill="none" points="393.37,116.47,374.403,116.9712,378.4971,128.2512,393.37,116.47" style="stroke:#181818;stroke-width:1.0;"/></g><!--reverse link ParseException to InvalidCommandException--><g id="link_ParseException_InvalidCommandException"><path codeLine="4" d="M436,134.27 C436,150.82 436,159.08 436,175.66 " fill="none" id="ParseException-backto-InvalidCommandException" style="stroke:#181818;stroke-width:1.0;"/><polygon fill="none" points="436,116.27,430,134.27,442,134.27,436,116.27" style="stroke:#181818;stroke-width:1.0;"/></g><!--reverse link ParseException to InvalidFormatException--><g id="link_ParseException_InvalidFormatException"><path codeLine="5" d="M494.1131,122.7923 C538.2031,139.3323 590.84,159.06 634.88,175.58 " fill="none" id="ParseException-backto-InvalidFormatException" style="stroke:#181818;stroke-width:1.0;"/><polygon fill="none" points="477.26,116.47,492.0057,128.41,496.2206,117.1746,477.26,116.47" style="stroke:#181818;stroke-width:1.0;"/></g><!--reverse link ParseException to NoRecordedModificationException--><g id="link_ParseException_NoRecordedModificationException"><path codeLine="6" d="M522.6978,107.0448 C615.3378,114.7648 754.8,132.56 790,176 C819.31,212.17 758.19,247.9 714.64,267.54 " fill="none" id="ParseException-backto-NoRecordedModificationException" style="stroke:#181818;stroke-width:1.0;"/><polygon fill="none" points="504.76,105.55,522.1996,113.0241,523.1961,101.0655,504.76,105.55" style="stroke:#181818;stroke-width:1.0;"/></g><!--link IllegalArgumentException to DuplicatedPrefixException--><!--link InvalidFormatException to NoRecordedModificationException--><!--SRC=[bPBBJiCm44Nt_efPjejKJLfLA4WLq9Se3KHzRH0BDvwc5iauSknG1Fmx3gWW8K6BbpDpxhqpSi6JHvuY55oNg5kuJx0mKb5v_iB0lQ4jCfbmWoBMk9NxqM40F5juhts8Q_2h-i5SPnccFBlKgSsHp4a8LJoJOg3od9Fu1p5MEkSdMTogEIPA2nIH4d9RB-LQnyWZ2ztlf1183q8zaTV__Lf_HluXSYJePoI78EIORr2Nx8rT80d6ueoJMKKpg5orblPRGJlej7o_iTnPM601VXVQGHZqmau75fCbrFqcQqpY6PJAwWH1oD9ekR6rLvDDUSLXRid874EuAv2cmvj30KPKIQseFWgRhgFlWLxNkvB6EMeN1TOH6-AMsymu8d5BKHh2QZdspjYCKshT1mm1YGsKqzNFeKls3W00]--></g></svg>