<?xml version="1.0" encoding="us-ascii" standalone="no"?><svg xmlns="http://www.w3.org/2000/svg" xmlns:xlink="http://www.w3.org/1999/xlink" contentStyleType="text/css" height="255px" preserveAspectRatio="none" style="width:791px;height:255px;background:#FFFFFF;" version="1.1" viewBox="0 0 791 255" width="791px" zoomAndPan="magnify"><defs/><g><!--cluster "commands--><g id="cluster_&quot;commands"><path d="M8.5,6 L93.5,6 A3.75,3.75 0 0 1 96,8.5 L103,28.4883 L781.5,28.4883 A2.5,2.5 0 0 1 784,30.9883 L784,245.5 A2.5,2.5 0 0 1 781.5,248 L8.5,248 A2.5,2.5 0 0 1 6,245.5 L6,8.5 A2.5,2.5 0 0 1 8.5,6 " fill="none" style="stroke:#000000;stroke-width:1.5;"/><line style="stroke:#000000;stroke-width:1.5;" x1="6" x2="103" y1="28.4883" y2="28.4883"/><text fill="#000000" font-family="sans-serif" font-size="14" font-weight="bold" lengthAdjust="spacing" textLength="84" x="10" y="21.5352">"commands</text></g><!--cluster exceptions";--><g id="cluster_exceptions&quot;;"><path d="M32.5,49 L119.5,49 A3.75,3.75 0 0 1 122,51.5 L129,71.4883 L757.5,71.4883 A2.5,2.5 0 0 1 760,73.9883 L760,221.5 A2.5,2.5 0 0 1 757.5,224 L32.5,224 A2.5,2.5 0 0 1 30,221.5 L30,51.5 A2.5,2.5 0 0 1 32.5,49 " fill="none" style="stroke:#000000;stroke-width:1.5;"/><line style="stroke:#000000;stroke-width:1.5;" x1="30" x2="129" y1="71.4883" y2="71.4883"/><text fill="#000000" font-family="sans-serif" font-size="14" font-weight="bold" lengthAdjust="spacing" textLength="86" x="34" y="64.5352">exceptions";</text></g><!--class CommandException--><g id="elem_CommandException"><rect codeLine="2" fill="#F1F1F1" height="32" id="CommandException" rx="2.5" ry="2.5" style="stroke:#181818;stroke-width:0.5;" width="171" x="305.5" y="84"/><ellipse cx="320.5" cy="100" fill="#ADD1B2" rx="11" ry="11" style="stroke:#181818;stroke-width:1.0;"/><path d="M323.4731,105.6431 Q322.8921,105.9419 322.2529,106.0913 Q321.6138,106.2407 320.9082,106.2407 Q318.4014,106.2407 317.0815,104.5889 Q315.7617,102.937 315.7617,99.8159 Q315.7617,96.6865 317.0815,95.0347 Q318.4014,93.3828 320.9082,93.3828 Q321.6138,93.3828 322.2612,93.5322 Q322.9087,93.6816 323.4731,93.9805 L323.4731,96.7031 Q322.8423,96.1221 322.2488,95.8523 Q321.6553,95.5825 321.0244,95.5825 Q319.6797,95.5825 318.9949,96.6492 Q318.3101,97.7158 318.3101,99.8159 Q318.3101,101.9077 318.9949,102.9744 Q319.6797,104.041 321.0244,104.041 Q321.6553,104.041 322.2488,103.7712 Q322.8423,103.5015 323.4731,102.9204 Z " fill="#000000"/><text fill="#000000" font-family="sans-serif" font-size="14" lengthAdjust="spacing" textLength="139" x="334.5" y="105.291">CommandException</text></g><!--class DuplicatedTaskException--><g id="elem_DuplicatedTaskException"><rect codeLine="3" fill="#F1F1F1" height="32" id="DuplicatedTaskException" rx="2.5" ry="2.5" style="stroke:#181818;stroke-width:0.5;" width="205" x="45.5" y="176"/><ellipse cx="60.5" cy="192" fill="#ADD1B2" rx="11" ry="11" style="stroke:#181818;stroke-width:1.0;"/><path d="M63.4731,197.6431 Q62.8921,197.9419 62.2529,198.0913 Q61.6138,198.2407 60.9082,198.2407 Q58.4014,198.2407 57.0815,196.5889 Q55.7617,194.937 55.7617,191.8159 Q55.7617,188.6865 57.0815,187.0347 Q58.4014,185.3828 60.9082,185.3828 Q61.6138,185.3828 62.2612,185.5322 Q62.9087,185.6816 63.4731,185.9805 L63.4731,188.7031 Q62.8423,188.1221 62.2488,187.8523 Q61.6553,187.5825 61.0244,187.5825 Q59.6797,187.5825 58.9949,188.6492 Q58.3101,189.7158 58.3101,191.8159 Q58.3101,193.9077 58.9949,194.9744 Q59.6797,196.041 61.0244,196.041 Q61.6553,196.041 62.2488,195.7712 Q62.8423,195.5015 63.4731,194.9204 Z " fill="#000000"/><text fill="#000000" font-family="sans-serif" font-size="14" lengthAdjust="spacing" textLength="173" x="74.5" y="197.291">DuplicatedTaskException</text></g><!--class IllegalCommandException--><g id="elem_IllegalCommandException"><rect codeLine="4" fill="#F1F1F1" height="32" id="IllegalCommandException" rx="2.5" ry="2.5" style="stroke:#181818;stroke-width:0.5;" width="212" x="285" y="176"/><ellipse cx="300" cy="192" fill="#ADD1B2" rx="11" ry="11" style="stroke:#181818;stroke-width:1.0;"/><path d="M302.9731,197.6431 Q302.3921,197.9419 301.7529,198.0913 Q301.1138,198.2407 300.4082,198.2407 Q297.9014,198.2407 296.5815,196.5889 Q295.2617,194.937 295.2617,191.8159 Q295.2617,188.6865 296.5815,187.0347 Q297.9014,185.3828 300.4082,185.3828 Q301.1138,185.3828 301.7612,185.5322 Q302.4087,185.6816 302.9731,185.9805 L302.9731,188.7031 Q302.3423,188.1221 301.7488,187.8523 Q301.1553,187.5825 300.5244,187.5825 Q299.1797,187.5825 298.4949,188.6492 Q297.8101,189.7158 297.8101,191.8159 Q297.8101,193.9077 298.4949,194.9744 Q299.1797,196.041 300.5244,196.041 Q301.1553,196.041 301.7488,195.7712 Q302.3423,195.5015 302.9731,194.9204 Z " fill="#000000"/><text fill="#000000" font-family="sans-serif" font-size="14" lengthAdjust="spacing" textLength="180" x="314" y="197.291">IllegalCommandException</text></g><!--class IllegalTaskIndexException--><g id="elem_IllegalTaskIndexException"><rect codeLine="5" fill="#F1F1F1" height="32" id="IllegalTaskIndexException" rx="2.5" ry="2.5" style="stroke:#181818;stroke-width:0.5;" width="212" x="532" y="176"/><ellipse cx="547" cy="192" fill="#ADD1B2" rx="11" ry="11" style="stroke:#181818;stroke-width:1.0;"/><path d="M549.9731,197.6431 Q549.3921,197.9419 548.7529,198.0913 Q548.1138,198.2407 547.4082,198.2407 Q544.9014,198.2407 543.5815,196.5889 Q542.2617,194.937 542.2617,191.8159 Q542.2617,188.6865 543.5815,187.0347 Q544.9014,185.3828 547.4082,185.3828 Q548.1138,185.3828 548.7612,185.5322 Q549.4087,185.6816 549.9731,185.9805 L549.9731,188.7031 Q549.3423,188.1221 548.7488,187.8523 Q548.1553,187.5825 547.5244,187.5825 Q546.1797,187.5825 545.4949,188.6492 Q544.8101,189.7158 544.8101,191.8159 Q544.8101,193.9077 545.4949,194.9744 Q546.1797,196.041 547.5244,196.041 Q548.1553,196.041 548.7488,195.7712 Q549.3423,195.5015 549.9731,194.9204 Z " fill="#000000"/><text fill="#000000" font-family="sans-serif" font-size="14" lengthAdjust="spacing" textLength="180" x="561" y="197.291">IllegalTaskIndexException</text></g><!--reverse link CommandException to DuplicatedTaskException--><g id="link_CommandException_DuplicatedTaskException"><path codeLine="7" d="M332.3509,122.7226 C287.7009,139.2626 234.23,159.06 189.63,175.58 " fill="none" id="CommandException-backto-DuplicatedTaskException" style="stroke:#181818;stroke-width:1.0;"/><polygon fill="none" points="349.23,116.47,330.2667,117.0963,334.4351,128.349,349.23,116.47" style="stroke:#181818;stroke-width:1.0;"/></g><!--reverse link CommandException to IllegalCommandException--><g id="link_CommandException_IllegalCommandException"><path codeLine="8" d="M391,134.27 C391,150.82 391,159.08 391,175.66 " fill="none" id="CommandException-backto-IllegalCommandException" style="stroke:#181818;stroke-width:1.0;"/><polygon fill="none" points="391,116.27,385,134.27,397,134.27,391,116.27" style="stroke:#181818;stroke-width:1.0;"/></g><!--reverse link CommandException to IllegalTaskIndexException--><g id="link_CommandException_IllegalTaskIndexException"><path codeLine="9" d="M450.3717,122.6339 C495.7517,139.1739 550.36,159.06 595.68,175.58 " fill="none" id="CommandException-backto-IllegalTaskIndexException" style="stroke:#181818;stroke-width:1.0;"/><polygon fill="none" points="433.46,116.47,448.3171,128.2712,452.4264,116.9967,433.46,116.47" style="stroke:#181818;stroke-width:1.0;"/></g><!--SRC=[ZP9TJy8m58Rl-ojEk8AB4JO8CJCnHa02GYGmk2_jSJHqPylQBXZrlzkX11F1sClpFk_7HGikzZn5Q8WyopX9qyQ3mCAgd4pZzes1Vq9pOs3m1OnEyWzfw0gj1BSe4sxsbuY9rfXo_KV6Dr47J4ZYuSmSeIiL4BWYUB-xFEvAwNyylsTSTHrjEoKHCiosM1hsmUwH96CBpSckvpEe_BME2DjH9-gsmx2Px1oii82m1vqeZlfnjmkhSGArtcBDyM869dUbG93As59jNTtLObDUSLWwiYh369uBfEdmwNI04LMgp2b3icowcP-1VYzuKDOtbduAREPiY2_SQUiT8fUAqXZMoMDmmsQSKkV_Gmn8R93xtF8rzii-0G00]--></g></svg>