<?xml version="1.0" encoding="us-ascii" standalone="no"?><svg xmlns="http://www.w3.org/2000/svg" xmlns:xlink="http://www.w3.org/1999/xlink" contentStyleType="text/css" height="176px" preserveAspectRatio="none" style="width:577px;height:176px;background:#FFFFFF;" version="1.1" viewBox="0 0 577 176" width="577px" zoomAndPan="magnify"><defs/><g><!--cluster TaskWise--><g id="cluster_TaskWise"><path d="M8.5,86.93 L78.5,86.93 A3.75,3.75 0 0 1 81,89.43 L88,109.4183 L567.5,109.4183 A2.5,2.5 0 0 1 570,111.9183 L570,167.43 A2.5,2.5 0 0 1 567.5,169.93 L8.5,169.93 A2.5,2.5 0 0 1 6,167.43 L6,89.43 A2.5,2.5 0 0 1 8.5,86.93 " fill="none" style="stroke:#000000;stroke-width:1.5;"/><line style="stroke:#000000;stroke-width:1.5;" x1="6" x2="88" y1="109.4183" y2="109.4183"/><text fill="#000000" font-family="sans-serif" font-size="14" font-weight="bold" lengthAdjust="spacing" textLength="69" x="10" y="102.4652">TaskWise</text></g><!--class CommandException--><g id="elem_CommandException"><rect fill="#F1F1F1" height="32" id="CommandException" rx="2.5" ry="2.5" style="stroke:#181818;stroke-width:0.5;" width="171" x="382.5" y="121.93"/><ellipse cx="397.5" cy="137.93" fill="#ADD1B2" rx="11" ry="11" style="stroke:#181818;stroke-width:1.0;"/><path d="M400.4731,143.5731 Q399.8921,143.8719 399.2529,144.0213 Q398.6138,144.1707 397.9082,144.1707 Q395.4014,144.1707 394.0815,142.5189 Q392.7617,140.867 392.7617,137.7459 Q392.7617,134.6165 394.0815,132.9647 Q395.4014,131.3128 397.9082,131.3128 Q398.6138,131.3128 399.2612,131.4622 Q399.9087,131.6116 400.4731,131.9105 L400.4731,134.6331 Q399.8423,134.0521 399.2488,133.7823 Q398.6553,133.5125 398.0244,133.5125 Q396.6797,133.5125 395.9949,134.5792 Q395.3101,135.6458 395.3101,137.7459 Q395.3101,139.8377 395.9949,140.9044 Q396.6797,141.971 398.0244,141.971 Q398.6553,141.971 399.2488,141.7012 Q399.8423,141.4315 400.4731,140.8504 Z " fill="#000000"/><text fill="#000000" font-family="sans-serif" font-size="14" lengthAdjust="spacing" textLength="139" x="411.5" y="143.221">CommandException</text></g><!--class ParseException--><g id="elem_ParseException"><rect fill="#F1F1F1" height="32" id="ParseException" rx="2.5" ry="2.5" style="stroke:#181818;stroke-width:0.5;" width="137" x="210.5" y="121.93"/><ellipse cx="225.5" cy="137.93" fill="#ADD1B2" rx="11" ry="11" style="stroke:#181818;stroke-width:1.0;"/><path d="M228.4731,143.5731 Q227.8921,143.8719 227.2529,144.0213 Q226.6138,144.1707 225.9082,144.1707 Q223.4014,144.1707 222.0815,142.5189 Q220.7617,140.867 220.7617,137.7459 Q220.7617,134.6165 222.0815,132.9647 Q223.4014,131.3128 225.9082,131.3128 Q226.6138,131.3128 227.2612,131.4622 Q227.9087,131.6116 228.4731,131.9105 L228.4731,134.6331 Q227.8423,134.0521 227.2488,133.7823 Q226.6553,133.5125 226.0244,133.5125 Q224.6797,133.5125 223.9949,134.5792 Q223.3101,135.6458 223.3101,137.7459 Q223.3101,139.8377 223.9949,140.9044 Q224.6797,141.971 226.0244,141.971 Q226.6553,141.971 227.2488,141.7012 Q227.8423,141.4315 228.4731,140.8504 Z " fill="#000000"/><text fill="#000000" font-family="sans-serif" font-size="14" lengthAdjust="spacing" textLength="105" x="239.5" y="143.221">ParseException</text></g><!--class StorageException--><g id="elem_StorageException"><rect fill="#F1F1F1" height="32" id="StorageException" rx="2.5" ry="2.5" style="stroke:#181818;stroke-width:0.5;" width="153" x="22.5" y="121.93"/><ellipse cx="37.5" cy="137.93" fill="#ADD1B2" rx="11" ry="11" style="stroke:#181818;stroke-width:1.0;"/><path d="M40.4731,143.5731 Q39.8921,143.8719 39.2529,144.0213 Q38.6138,144.1707 37.9082,144.1707 Q35.4014,144.1707 34.0815,142.5189 Q32.7617,140.867 32.7617,137.7459 Q32.7617,134.6165 34.0815,132.9647 Q35.4014,131.3128 37.9082,131.3128 Q38.6138,131.3128 39.2612,131.4622 Q39.9087,131.6116 40.4731,131.9105 L40.4731,134.6331 Q39.8423,134.0521 39.2488,133.7823 Q38.6553,133.5125 38.0244,133.5125 Q36.6797,133.5125 35.9949,134.5792 Q35.3101,135.6458 35.3101,137.7459 Q35.3101,139.8377 35.9949,140.9044 Q36.6797,141.971 38.0244,141.971 Q38.6553,141.971 39.2488,141.7012 Q39.8423,141.4315 40.4731,140.8504 Z " fill="#000000"/><text fill="#000000" font-family="sans-serif" font-size="14" lengthAdjust="spacing" textLength="121" x="51.5" y="143.221">StorageException</text></g><!--class Exception--><g id="elem_Exception"><rect codeLine="1" fill="#F1F1F1" height="32" id="Exception" rx="2.5" ry="2.5" style="stroke:#181818;stroke-width:0.5;" width="100" x="229" y="17.96"/><ellipse cx="244" cy="33.96" fill="#ADD1B2" rx="11" ry="11" style="stroke:#181818;stroke-width:1.0;"/><path d="M246.9731,39.6031 Q246.3921,39.9019 245.7529,40.0513 Q245.1138,40.2007 244.4082,40.2007 Q241.9014,40.2007 240.5815,38.5489 Q239.2617,36.897 239.2617,33.7759 Q239.2617,30.6465 240.5815,28.9947 Q241.9014,27.3428 244.4082,27.3428 Q245.1138,27.3428 245.7612,27.4922 Q246.4087,27.6416 246.9731,27.9405 L246.9731,30.6631 Q246.3423,30.0821 245.7488,29.8123 Q245.1553,29.5425 244.5244,29.5425 Q243.1797,29.5425 242.4949,30.6092 Q241.8101,31.6758 241.8101,33.7759 Q241.8101,35.8677 242.4949,36.9344 Q243.1797,38.001 244.5244,38.001 Q245.1553,38.001 245.7488,37.7312 Q246.3423,37.4615 246.9731,36.8804 Z " fill="#000000"/><text fill="#000000" font-family="sans-serif" font-size="14" lengthAdjust="spacing" textLength="68" x="258" y="39.251">Exception</text></g><g id="elem_GMN3"><path d="M6,6 L6,61.9316 A0,0 0 0 0 6,61.9316 L194,61.9316 A0,0 0 0 0 194,61.9316 L194,37.96 L228.77,33.96 L194,29.96 L194,16 L184,6 L6,6 A0,0 0 0 0 6,6 " fill="#FEFFDD" style="stroke:#181818;stroke-width:0.5;"/><path d="M184,6 L184,16 L194,16 L184,6 " fill="#FEFFDD" style="stroke:#181818;stroke-width:0.5;"/><text fill="#000000" font-family="sans-serif" font-size="13" lengthAdjust="spacing" textLength="167" x="12" y="23.5684">java.lang.Exception, which</text><text fill="#000000" font-family="sans-serif" font-size="13" lengthAdjust="spacing" textLength="151" x="12" y="38.8789">should not be caught or</text><text fill="#000000" font-family="sans-serif" font-size="13" lengthAdjust="spacing" textLength="132" x="12" y="54.1895">handled by TaskWise</text></g><!--reverse link Exception to CommandException--><g id="link_Exception_CommandException"><path codeLine="6" d="M325.8703,58.4383 C342.3403,66.7483 346.83,69.17 365,78.93 C391.22,93.01 420.78,109.74 441.49,121.61 " fill="none" id="Exception-backto-CommandException" style="stroke:#181818;stroke-width:1.0;"/><polygon fill="none" points="309.8,50.33,323.1675,63.7951,328.5731,53.0816,309.8,50.33" style="stroke:#181818;stroke-width:1.0;"/></g><!--reverse link Exception to ParseException--><g id="link_Exception_ParseException"><path codeLine="7" d="M279,68.45 C279,87.73 279,102.44 279,121.63 " fill="none" id="Exception-backto-ParseException" style="stroke:#181818;stroke-width:1.0;"/><polygon fill="none" points="279,50.45,273,68.45,285,68.45,279,50.45" style="stroke:#181818;stroke-width:1.0;"/></g><!--reverse link Exception to StorageException--><g id="link_Exception_StorageException"><path codeLine="8" d="M231.1244,58.478 C214.7544,66.648 210.68,68.98 193,78.93 C168.6,92.66 141.46,109.6 122.64,121.61 " fill="none" id="Exception-backto-StorageException" style="stroke:#181818;stroke-width:1.0;"/><polygon fill="none" points="247.23,50.44,228.4451,53.1095,233.8038,63.8466,247.23,50.44" style="stroke:#181818;stroke-width:1.0;"/></g><!--SRC=[XOuz3i8m34RtdE8x0Eq165WGEn98B5tSn6q2-Qdgb1y1ToSiXGayFhrdMtiImUQgUSWkHQLYoWpFNKRgFdo98vsfzXJxUeOBNApJjebYq-GDIegMeMdgRSd79bgAnhD1UyEUv7HmmkK21PQ1DCyCTuKownH22URzgAQXUgo-ldjRMng5_pYxd4RgVrbFfPHrXX4uj3pA2m00]--></g></svg>
