<?xml version="1.0" encoding="us-ascii" standalone="no"?><svg xmlns="http://www.w3.org/2000/svg" xmlns:xlink="http://www.w3.org/1999/xlink" contentStyleType="text/css" height="521px" preserveAspectRatio="none" style="width:1471px;height:521px;background:#FFFFFF;" version="1.1" viewBox="0 0 1471 521" width="1471px" zoomAndPan="magnify"><defs/><g><!--cluster storage--><g id="cluster_storage"><path d="M125.5,6 L180.5,6 A3.75,3.75 0 0 1 183,8.5 L190,28.4883 L1461.5,28.4883 A2.5,2.5 0 0 1 1464,30.9883 L1464,511.5 A2.5,2.5 0 0 1 1461.5,514 L125.5,514 A2.5,2.5 0 0 1 123,511.5 L123,8.5 A2.5,2.5 0 0 1 125.5,6 " fill="none" style="stroke:#000000;stroke-width:1.5;"/><line style="stroke:#000000;stroke-width:1.5;" x1="123" x2="190" y1="28.4883" y2="28.4883"/><text fill="#000000" font-family="sans-serif" font-size="14" font-weight="bold" lengthAdjust="spacing" textLength="54" x="127" y="21.5352">storage</text></g><!--cluster exceptions;--><g id="cluster_exceptions;"><path d="M1211.5,49 L1292.5,49 A3.75,3.75 0 0 1 1295,51.5 L1302,71.4883 L1392.5,71.4883 A2.5,2.5 0 0 1 1395,73.9883 L1395,129.5 A2.5,2.5 0 0 1 1392.5,132 L1211.5,132 A2.5,2.5 0 0 1 1209,129.5 L1209,51.5 A2.5,2.5 0 0 1 1211.5,49 " fill="none" style="stroke:#000000;stroke-width:1.5;"/><line style="stroke:#000000;stroke-width:1.5;" x1="1209" x2="1302" y1="71.4883" y2="71.4883"/><text fill="#000000" font-family="sans-serif" font-size="14" font-weight="bold" lengthAdjust="spacing" textLength="80" x="1213" y="64.5352">exceptions;</text></g><!--cluster exceptions--><g id="cluster_exceptions"><path d="M149.5,156 L227.5,156 A3.75,3.75 0 0 1 230,158.5 L237,178.4883 L1437.5,178.4883 A2.5,2.5 0 0 1 1440,180.9883 L1440,487.5 A2.5,2.5 0 0 1 1437.5,490 L149.5,490 A2.5,2.5 0 0 1 147,487.5 L147,158.5 A2.5,2.5 0 0 1 149.5,156 " fill="none" style="stroke:#000000;stroke-width:1.5;"/><line style="stroke:#000000;stroke-width:1.5;" x1="147" x2="237" y1="178.4883" y2="178.4883"/><text fill="#000000" font-family="sans-serif" font-size="14" font-weight="bold" lengthAdjust="spacing" textLength="77" x="151" y="171.5352">exceptions</text></g><!--cluster json;--><g id="cluster_json;"><path d="M173.5,199 L208.5,199 A3.75,3.75 0 0 1 211,201.5 L218,221.4883 L825.5,221.4883 A2.5,2.5 0 0 1 828,223.9883 L828,463.5 A2.5,2.5 0 0 1 825.5,466 L173.5,466 A2.5,2.5 0 0 1 171,463.5 L171,201.5 A2.5,2.5 0 0 1 173.5,199 " fill="none" style="stroke:#000000;stroke-width:1.5;"/><line style="stroke:#000000;stroke-width:1.5;" x1="171" x2="218" y1="221.4883" y2="221.4883"/><text fill="#000000" font-family="sans-serif" font-size="14" font-weight="bold" lengthAdjust="spacing" textLength="34" x="175" y="214.5352">json;</text></g><!--cluster storage;--><g id="cluster_storage;"><path d="M854.5,199 L912.5,199 A3.75,3.75 0 0 1 915,201.5 L922,221.4883 L1413.5,221.4883 A2.5,2.5 0 0 1 1416,223.9883 L1416,371.5 A2.5,2.5 0 0 1 1413.5,374 L854.5,374 A2.5,2.5 0 0 1 852,371.5 L852,201.5 A2.5,2.5 0 0 1 854.5,199 " fill="none" style="stroke:#000000;stroke-width:1.5;"/><line style="stroke:#000000;stroke-width:1.5;" x1="852" x2="922" y1="221.4883" y2="221.4883"/><text fill="#000000" font-family="sans-serif" font-size="14" font-weight="bold" lengthAdjust="spacing" textLength="57" x="856" y="214.5352">storage;</text></g><!--class StorageException--><g id="elem_StorageException"><rect codeLine="5" fill="#F1F1F1" height="32" id="StorageException" rx="2.5" ry="2.5" style="stroke:#181818;stroke-width:0.5;" width="153" x="1225.5" y="84"/><ellipse cx="1240.5" cy="100" fill="#ADD1B2" rx="11" ry="11" style="stroke:#181818;stroke-width:1.0;"/><path d="M1243.4731,105.6431 Q1242.8921,105.9419 1242.2529,106.0913 Q1241.6138,106.2407 1240.9082,106.2407 Q1238.4014,106.2407 1237.0815,104.5889 Q1235.7617,102.937 1235.7617,99.8159 Q1235.7617,96.6865 1237.0815,95.0347 Q1238.4014,93.3828 1240.9082,93.3828 Q1241.6138,93.3828 1242.2612,93.5322 Q1242.9087,93.6816 1243.4731,93.9805 L1243.4731,96.7031 Q1242.8423,96.1221 1242.2488,95.8523 Q1241.6553,95.5825 1241.0244,95.5825 Q1239.6797,95.5825 1238.9949,96.6492 Q1238.3101,97.7158 1238.3101,99.8159 Q1238.3101,101.9077 1238.9949,102.9744 Q1239.6797,104.041 1241.0244,104.041 Q1241.6553,104.041 1242.2488,103.7712 Q1242.8423,103.5015 1243.4731,102.9204 Z " fill="#000000"/><text fill="#000000" font-family="sans-serif" font-size="14" lengthAdjust="spacing" textLength="121" x="1254.5" y="105.291">StorageException</text></g><!--class IllegalJsonDescriptionValueException--><g id="elem_IllegalJsonDescriptionValueException"><rect codeLine="11" fill="#F1F1F1" height="32" id="IllegalJsonDescriptionValueException" rx="2.5" ry="2.5" style="stroke:#181818;stroke-width:0.5;" width="286" x="204" y="418"/><ellipse cx="219" cy="434" fill="#ADD1B2" rx="11" ry="11" style="stroke:#181818;stroke-width:1.0;"/><path d="M221.9731,439.6431 Q221.3921,439.9419 220.7529,440.0913 Q220.1138,440.2407 219.4082,440.2407 Q216.9014,440.2407 215.5815,438.5889 Q214.2617,436.937 214.2617,433.8159 Q214.2617,430.6865 215.5815,429.0347 Q216.9014,427.3828 219.4082,427.3828 Q220.1138,427.3828 220.7612,427.5322 Q221.4087,427.6816 221.9731,427.9805 L221.9731,430.7031 Q221.3423,430.1221 220.7488,429.8523 Q220.1553,429.5825 219.5244,429.5825 Q218.1797,429.5825 217.4949,430.6492 Q216.8101,431.7158 216.8101,433.8159 Q216.8101,435.9077 217.4949,436.9744 Q218.1797,438.041 219.5244,438.041 Q220.1553,438.041 220.7488,437.7712 Q221.3423,437.5015 221.9731,436.9204 Z " fill="#000000"/><text fill="#000000" font-family="sans-serif" font-size="14" lengthAdjust="spacing" textLength="254" x="233" y="439.291">IllegalJsonDescriptionValueException</text></g><!--class IllegalJsonDuplicatedValueException--><g id="elem_IllegalJsonDuplicatedValueException"><rect codeLine="12" fill="#F1F1F1" height="32" id="IllegalJsonDuplicatedValueException" rx="2.5" ry="2.5" style="stroke:#181818;stroke-width:0.5;" width="281" x="224.5" y="326"/><ellipse cx="239.5" cy="342" fill="#ADD1B2" rx="11" ry="11" style="stroke:#181818;stroke-width:1.0;"/><path d="M242.4731,347.6431 Q241.8921,347.9419 241.2529,348.0913 Q240.6138,348.2407 239.9082,348.2407 Q237.4014,348.2407 236.0815,346.5889 Q234.7617,344.937 234.7617,341.8159 Q234.7617,338.6865 236.0815,337.0347 Q237.4014,335.3828 239.9082,335.3828 Q240.6138,335.3828 241.2612,335.5322 Q241.9087,335.6816 242.4731,335.9805 L242.4731,338.7031 Q241.8423,338.1221 241.2488,337.8523 Q240.6553,337.5825 240.0244,337.5825 Q238.6797,337.5825 237.9949,338.6492 Q237.3101,339.7158 237.3101,341.8159 Q237.3101,343.9077 237.9949,344.9744 Q238.6797,346.041 240.0244,346.041 Q240.6553,346.041 241.2488,345.7712 Q241.8423,345.5015 242.4731,344.9204 Z " fill="#000000"/><text fill="#000000" font-family="sans-serif" font-size="14" lengthAdjust="spacing" textLength="249" x="253.5" y="347.291">IllegalJsonDuplicatedValueException</text></g><!--class IllegalJsonNameValueException--><g id="elem_IllegalJsonNameValueException"><rect codeLine="13" fill="#F1F1F1" height="32" id="IllegalJsonNameValueException" rx="2.5" ry="2.5" style="stroke:#181818;stroke-width:0.5;" width="247" x="544.5" y="418"/><ellipse cx="559.5" cy="434" fill="#ADD1B2" rx="11" ry="11" style="stroke:#181818;stroke-width:1.0;"/><path d="M562.4731,439.6431 Q561.8921,439.9419 561.2529,440.0913 Q560.6138,440.2407 559.9082,440.2407 Q557.4014,440.2407 556.0815,438.5889 Q554.7617,436.937 554.7617,433.8159 Q554.7617,430.6865 556.0815,429.0347 Q557.4014,427.3828 559.9082,427.3828 Q560.6138,427.3828 561.2612,427.5322 Q561.9087,427.6816 562.4731,427.9805 L562.4731,430.7031 Q561.8423,430.1221 561.2488,429.8523 Q560.6553,429.5825 560.0244,429.5825 Q558.6797,429.5825 557.9949,430.6492 Q557.3101,431.7158 557.3101,433.8159 Q557.3101,435.9077 557.9949,436.9744 Q558.6797,438.041 560.0244,438.041 Q560.6553,438.041 561.2488,437.7712 Q561.8423,437.5015 562.4731,436.9204 Z " fill="#000000"/><text fill="#000000" font-family="sans-serif" font-size="14" lengthAdjust="spacing" textLength="215" x="573.5" y="439.291">IllegalJsonNameValueException</text></g><!--class IllegalJsonTagValueException--><g id="elem_IllegalJsonTagValueException"><rect codeLine="14" fill="#F1F1F1" height="32" id="IllegalJsonTagValueException" rx="2.5" ry="2.5" style="stroke:#181818;stroke-width:0.5;" width="234" x="578" y="326"/><ellipse cx="593" cy="342" fill="#ADD1B2" rx="11" ry="11" style="stroke:#181818;stroke-width:1.0;"/><path d="M595.9731,347.6431 Q595.3921,347.9419 594.7529,348.0913 Q594.1138,348.2407 593.4082,348.2407 Q590.9014,348.2407 589.5815,346.5889 Q588.2617,344.937 588.2617,341.8159 Q588.2617,338.6865 589.5815,337.0347 Q590.9014,335.3828 593.4082,335.3828 Q594.1138,335.3828 594.7612,335.5322 Q595.4087,335.6816 595.9731,335.9805 L595.9731,338.7031 Q595.3423,338.1221 594.7488,337.8523 Q594.1553,337.5825 593.5244,337.5825 Q592.1797,337.5825 591.4949,338.6492 Q590.8101,339.7158 590.8101,341.8159 Q590.8101,343.9077 591.4949,344.9744 Q592.1797,346.041 593.5244,346.041 Q594.1553,346.041 594.7488,345.7712 Q595.3423,345.5015 595.9731,344.9204 Z " fill="#000000"/><text fill="#000000" font-family="sans-serif" font-size="14" lengthAdjust="spacing" textLength="202" x="607" y="347.291">IllegalJsonTagValueException</text></g><!--class IllegalJsonValueException--><g id="elem_IllegalJsonValueException"><rect codeLine="15" fill="#F1F1F1" height="32" id="IllegalJsonValueException" rx="2.5" ry="2.5" style="stroke:#181818;stroke-width:0.5;" width="208" x="261" y="234"/><ellipse cx="276" cy="250" fill="#ADD1B2" rx="11" ry="11" style="stroke:#181818;stroke-width:1.0;"/><path d="M278.9731,255.6431 Q278.3921,255.9419 277.7529,256.0913 Q277.1138,256.2407 276.4082,256.2407 Q273.9014,256.2407 272.5815,254.5889 Q271.2617,252.937 271.2617,249.8159 Q271.2617,246.6865 272.5815,245.0347 Q273.9014,243.3828 276.4082,243.3828 Q277.1138,243.3828 277.7612,243.5322 Q278.4087,243.6816 278.9731,243.9805 L278.9731,246.7031 Q278.3423,246.1221 277.7488,245.8523 Q277.1553,245.5825 276.5244,245.5825 Q275.1797,245.5825 274.4949,246.6492 Q273.8101,247.7158 273.8101,249.8159 Q273.8101,251.9077 274.4949,252.9744 Q275.1797,254.041 276.5244,254.041 Q277.1553,254.041 277.7488,253.7712 Q278.3423,253.5015 278.9731,252.9204 Z " fill="#000000"/><text fill="#000000" font-family="sans-serif" font-size="14" lengthAdjust="spacing" textLength="176" x="290" y="255.291">IllegalJsonValueException</text></g><!--class InsufficientStoragePrivilegeException--><g id="elem_InsufficientStoragePrivilegeException"><rect fill="#F1F1F1" height="32" id="InsufficientStoragePrivilegeException" rx="2.5" ry="2.5" style="stroke:#181818;stroke-width:0.5;" width="287" x="1113.5" y="234"/><ellipse cx="1128.5" cy="250" fill="#ADD1B2" rx="11" ry="11" style="stroke:#181818;stroke-width:1.0;"/><path d="M1131.4731,255.6431 Q1130.8921,255.9419 1130.2529,256.0913 Q1129.6138,256.2407 1128.9082,256.2407 Q1126.4014,256.2407 1125.0815,254.5889 Q1123.7617,252.937 1123.7617,249.8159 Q1123.7617,246.6865 1125.0815,245.0347 Q1126.4014,243.3828 1128.9082,243.3828 Q1129.6138,243.3828 1130.2612,243.5322 Q1130.9087,243.6816 1131.4731,243.9805 L1131.4731,246.7031 Q1130.8423,246.1221 1130.2488,245.8523 Q1129.6553,245.5825 1129.0244,245.5825 Q1127.6797,245.5825 1126.9949,246.6492 Q1126.3101,247.7158 1126.3101,249.8159 Q1126.3101,251.9077 1126.9949,252.9744 Q1127.6797,254.041 1129.0244,254.041 Q1129.6553,254.041 1130.2488,253.7712 Q1130.8423,253.5015 1131.4731,252.9204 Z " fill="#000000"/><text fill="#000000" font-family="sans-serif" font-size="14" lengthAdjust="spacing" textLength="255" x="1142.5" y="255.291">InsufficientStoragePrivilegeException</text></g><!--class StorageReadWriteException--><g id="elem_StorageReadWriteException"><rect fill="#F1F1F1" height="32" id="StorageReadWriteException" rx="2.5" ry="2.5" style="stroke:#181818;stroke-width:0.5;" width="222" x="1023" y="326"/><ellipse cx="1038" cy="342" fill="#ADD1B2" rx="11" ry="11" style="stroke:#181818;stroke-width:1.0;"/><path d="M1040.9731,347.6431 Q1040.3921,347.9419 1039.7529,348.0913 Q1039.1138,348.2407 1038.4082,348.2407 Q1035.9014,348.2407 1034.5815,346.5889 Q1033.2617,344.937 1033.2617,341.8159 Q1033.2617,338.6865 1034.5815,337.0347 Q1035.9014,335.3828 1038.4082,335.3828 Q1039.1138,335.3828 1039.7612,335.5322 Q1040.4087,335.6816 1040.9731,335.9805 L1040.9731,338.7031 Q1040.3423,338.1221 1039.7488,337.8523 Q1039.1553,337.5825 1038.5244,337.5825 Q1037.1797,337.5825 1036.4949,338.6492 Q1035.8101,339.7158 1035.8101,341.8159 Q1035.8101,343.9077 1036.4949,344.9744 Q1037.1797,346.041 1038.5244,346.041 Q1039.1553,346.041 1039.7488,345.7712 Q1040.3423,345.5015 1040.9731,344.9204 Z " fill="#000000"/><text fill="#000000" font-family="sans-serif" font-size="14" lengthAdjust="spacing" textLength="190" x="1052" y="347.291">StorageReadWriteException</text></g><!--class FileStorageLoadException--><g id="elem_FileStorageLoadException"><rect fill="#F1F1F1" height="32" id="FileStorageLoadException" rx="2.5" ry="2.5" style="stroke:#181818;stroke-width:0.5;" width="210" x="868" y="234"/><ellipse cx="883" cy="250" fill="#ADD1B2" rx="11" ry="11" style="stroke:#181818;stroke-width:1.0;"/><path d="M885.9731,255.6431 Q885.3921,255.9419 884.7529,256.0913 Q884.1138,256.2407 883.4082,256.2407 Q880.9014,256.2407 879.5815,254.5889 Q878.2617,252.937 878.2617,249.8159 Q878.2617,246.6865 879.5815,245.0347 Q880.9014,243.3828 883.4082,243.3828 Q884.1138,243.3828 884.7612,243.5322 Q885.4087,243.6816 885.9731,243.9805 L885.9731,246.7031 Q885.3423,246.1221 884.7488,245.8523 Q884.1553,245.5825 883.5244,245.5825 Q882.1797,245.5825 881.4949,246.6492 Q880.8101,247.7158 880.8101,249.8159 Q880.8101,251.9077 881.4949,252.9744 Q882.1797,254.041 883.5244,254.041 Q884.1553,254.041 884.7488,253.7712 Q885.3423,253.5015 885.9731,252.9204 Z " fill="#000000"/><text fill="#000000" font-family="sans-serif" font-size="14" lengthAdjust="spacing" textLength="178" x="897" y="255.291">FileStorageLoadException</text></g><!--class Exception--><g id="elem_Exception"><rect codeLine="1" fill="#F1F1F1" height="32" id="Exception" rx="2.5" ry="2.5" style="stroke:#181818;stroke-width:0.5;" width="100" x="7" y="84"/><ellipse cx="22" cy="100" fill="#ADD1B2" rx="11" ry="11" style="stroke:#181818;stroke-width:1.0;"/><path d="M24.9731,105.6431 Q24.3921,105.9419 23.7529,106.0913 Q23.1138,106.2407 22.4082,106.2407 Q19.9014,106.2407 18.5815,104.5889 Q17.2617,102.937 17.2617,99.8159 Q17.2617,96.6865 18.5815,95.0347 Q19.9014,93.3828 22.4082,93.3828 Q23.1138,93.3828 23.7612,93.5322 Q24.4087,93.6816 24.9731,93.9805 L24.9731,96.7031 Q24.3423,96.1221 23.7488,95.8523 Q23.1553,95.5825 22.5244,95.5825 Q21.1797,95.5825 20.4949,96.6492 Q19.8101,97.7158 19.8101,99.8159 Q19.8101,101.9077 20.4949,102.9744 Q21.1797,104.041 22.5244,104.041 Q23.1553,104.041 23.7488,103.7712 Q24.3423,103.5015 24.9731,102.9204 Z " fill="#000000"/><text fill="#000000" font-family="sans-serif" font-size="14" lengthAdjust="spacing" textLength="68" x="36" y="105.291">Exception</text></g><!--reverse link IllegalJsonValueException to IllegalJsonDescriptionValueException--><g id="link_IllegalJsonValueException_IllegalJsonDescriptionValueException"><path codeLine="17" d="M276.4046,272.264 C244.1646,283.204 226.15,295.72 207,326 C193.7,347.04 192.73,361.61 207,382 C218.72,398.74 236.54,410.01 255.57,417.58 " fill="none" id="IllegalJsonValueException-backto-IllegalJsonDescriptionValueException" style="stroke:#181818;stroke-width:1.0;"/><polygon fill="none" points="293.45,266.48,274.4766,266.5822,278.3326,277.9458,293.45,266.48" style="stroke:#181818;stroke-width:1.0;"/></g><!--reverse link IllegalJsonValueException to IllegalJsonDuplicatedValueException--><g id="link_IllegalJsonValueException_IllegalJsonDuplicatedValueException"><path codeLine="18" d="M365,284.27 C365,300.82 365,309.08 365,325.66 " fill="none" id="IllegalJsonValueException-backto-IllegalJsonDuplicatedValueException" style="stroke:#181818;stroke-width:1.0;"/><polygon fill="none" points="365,266.27,359,284.27,371,284.27,365,266.27" style="stroke:#181818;stroke-width:1.0;"/></g><!--reverse link IllegalJsonValueException to IllegalJsonNameValueException--><g id="link_IllegalJsonValueException_IllegalJsonNameValueException"><path codeLine="19" d="M430.657,272.6914 C464.017,285.0014 490.96,298.52 523,326 C545.83,345.58 538.18,362.4 561,382 C578.87,397.35 602.16,409.17 622.45,417.55 " fill="none" id="IllegalJsonValueException-backto-IllegalJsonNameValueException" style="stroke:#181818;stroke-width:1.0;"/><polygon fill="none" points="413.77,266.46,428.5799,278.3204,432.7341,267.0624,413.77,266.46" style="stroke:#181818;stroke-width:1.0;"/></g><!--reverse link IllegalJsonValueException to IllegalJsonTagValueException--><g id="link_IllegalJsonValueException_IllegalJsonTagValueException"><path codeLine="20" d="M439.0958,271.2059 C499.6358,287.7159 577.61,308.99 638.18,325.5 " fill="none" id="IllegalJsonValueException-backto-IllegalJsonTagValueException" style="stroke:#181818;stroke-width:1.0;"/><polygon fill="none" points="421.73,266.47,437.5172,276.9945,440.6744,265.4173,421.73,266.47" style="stroke:#181818;stroke-width:1.0;"/></g><!--reverse link Exception to IllegalJsonValueException--><g id="link_Exception_IllegalJsonValueException"><path codeLine="21" d="M105.3139,124.2166 C164.4739,152.6466 273.87,205.21 332.98,233.62 " fill="none" id="Exception-backto-IllegalJsonValueException" style="stroke:#181818;stroke-width:1.0;"/><polygon fill="none" points="89.09,116.42,102.715,129.6245,107.9127,118.8086,89.09,116.42" style="stroke:#181818;stroke-width:1.0;"/></g><!--link IllegalJsonDuplicatedValueException to IllegalJsonDescriptionValueException--><!--link IllegalJsonTagValueException to IllegalJsonNameValueException--><!--reverse link StorageException to InsufficientStoragePrivilegeException--><g id="link_StorageException_InsufficientStoragePrivilegeException"><path codeLine="30" d="M1292.1154,133.502 C1283.4954,161.862 1270.34,205.12 1261.69,233.58 " fill="none" id="StorageException-backto-InsufficientStoragePrivilegeException" style="stroke:#181818;stroke-width:1.0;"/><polygon fill="none" points="1297.35,116.28,1286.3747,131.7572,1297.8561,135.2469,1297.35,116.28" style="stroke:#181818;stroke-width:1.0;"/></g><!--reverse link StorageException to StorageReadWriteException--><g id="link_StorageException_StorageReadWriteException"><path codeLine="31" d="M1393.2688,123.4807 C1409.4888,130.4207 1408.17,133.4 1418,148 C1447.31,191.49 1450,224.45 1418,266 C1396.49,293.93 1315.39,313.56 1245.33,325.72 " fill="none" id="StorageException-backto-StorageReadWriteException" style="stroke:#181818;stroke-width:1.0;"/><polygon fill="none" points="1376.72,116.4,1390.9086,128.997,1395.6291,117.9644,1376.72,116.4" style="stroke:#181818;stroke-width:1.0;"/></g><!--reverse link Exception to FileStorageLoadException--><g id="link_Exception_FileStorageLoadException"><path codeLine="32" d="M125.4397,100.4423 C274.7297,99.6323 694.29,101.51 828,148 C881.03,166.44 932.34,210.13 957.29,233.54 " fill="none" id="Exception-backto-FileStorageLoadException" style="stroke:#181818;stroke-width:1.0;"/><polygon fill="none" points="107.44,100.54,125.4723,106.4423,125.4072,94.4424,107.44,100.54" style="stroke:#181818;stroke-width:1.0;"/></g><!--link FileStorageLoadException to StorageReadWriteException--><!--SRC=[bPD1Ri8m44NtEOKl42w0nAgj1Agggg1sWLWCzf1ESUp8TW09k3ic3IeXYUja4ydpvqtcvvjBi9Oz7pWMZhHAlaaWop5Vex59KW3VGeRCEctyUuGtdHspOyBymwl- -M_z3rFL6gnpY3RwiLeraLCfCGCvyuKdjDnGfVm4MTwDwPQNXIGE3aMC-WroZD4j88kHFMWgKSmgB2sBz3G9e1v9FLiE1hKD68neUJEOqDqUyB5t-wLFdK2r4dglqlWKXRVfXNQaPsZqwwDR-gVAbfiDSKBbwclrRcX7VcJReDQzknBgmmy4yMN8HNQz-0bruLM32FoBg_gVbgPVlH_KvTK5]--></g></svg>
