<?xml version="1.0" encoding="us-ascii" standalone="no"?><svg xmlns="http://www.w3.org/2000/svg" xmlns:xlink="http://www.w3.org/1999/xlink" contentStyleType="text/css" height="347px" preserveAspectRatio="none" style="width:857px;height:347px;background:#FFFFFF;" version="1.1" viewBox="0 0 857 347" width="857px" zoomAndPan="magnify"><defs/><g><!--cluster storage--><g id="cluster_storage"><path d="M8.5,6 L63.5,6 A3.75,3.75 0 0 1 66,8.5 L73,28.4883 L847.5,28.4883 A2.5,2.5 0 0 1 850,30.9883 L850,337.5 A2.5,2.5 0 0 1 847.5,340 L8.5,340 A2.5,2.5 0 0 1 6,337.5 L6,8.5 A2.5,2.5 0 0 1 8.5,6 " fill="none" style="stroke:#000000;stroke-width:1.5;"/><line style="stroke:#000000;stroke-width:1.5;" x1="6" x2="73" y1="28.4883" y2="28.4883"/><text fill="#000000" font-family="sans-serif" font-size="14" font-weight="bold" lengthAdjust="spacing" textLength="54" x="10" y="21.5352">storage</text></g><!--cluster exceptions;--><g id="cluster_exceptions;"><path d="M32.5,49 L113.5,49 A3.75,3.75 0 0 1 116,51.5 L123,71.4883 L823.5,71.4883 A2.5,2.5 0 0 1 826,73.9883 L826,313.5 A2.5,2.5 0 0 1 823.5,316 L32.5,316 A2.5,2.5 0 0 1 30,313.5 L30,51.5 A2.5,2.5 0 0 1 32.5,49 " fill="none" style="stroke:#000000;stroke-width:1.5;"/><line style="stroke:#000000;stroke-width:1.5;" x1="30" x2="123" y1="71.4883" y2="71.4883"/><text fill="#000000" font-family="sans-serif" font-size="14" font-weight="bold" lengthAdjust="spacing" textLength="80" x="34" y="64.5352">exceptions;</text></g><!--class StorageException--><g id="elem_StorageException"><rect codeLine="2" fill="#F1F1F1" height="32" id="StorageException" rx="2.5" ry="2.5" style="stroke:#181818;stroke-width:0.5;" width="153" x="359.5" y="84"/><ellipse cx="374.5" cy="100" fill="#ADD1B2" rx="11" ry="11" style="stroke:#181818;stroke-width:1.0;"/><path d="M377.4731,105.6431 Q376.8921,105.9419 376.2529,106.0913 Q375.6138,106.2407 374.9082,106.2407 Q372.4014,106.2407 371.0815,104.5889 Q369.7617,102.937 369.7617,99.8159 Q369.7617,96.6865 371.0815,95.0347 Q372.4014,93.3828 374.9082,93.3828 Q375.6138,93.3828 376.2612,93.5322 Q376.9087,93.6816 377.4731,93.9805 L377.4731,96.7031 Q376.8423,96.1221 376.2488,95.8523 Q375.6553,95.5825 375.0244,95.5825 Q373.6797,95.5825 372.9949,96.6492 Q372.3101,97.7158 372.3101,99.8159 Q372.3101,101.9077 372.9949,102.9744 Q373.6797,104.041 375.0244,104.041 Q375.6553,104.041 376.2488,103.7712 Q376.8423,103.5015 377.4731,102.9204 Z " fill="#000000"/><text fill="#000000" font-family="sans-serif" font-size="14" lengthAdjust="spacing" textLength="121" x="388.5" y="105.291">StorageException</text></g><!--class DuplicatedTaskException--><g id="elem_DuplicatedTaskException"><rect codeLine="3" fill="#F1F1F1" height="32" id="DuplicatedTaskException" rx="2.5" ry="2.5" style="stroke:#181818;stroke-width:0.5;" width="205" x="65.5" y="268"/><ellipse cx="80.5" cy="284" fill="#ADD1B2" rx="11" ry="11" style="stroke:#181818;stroke-width:1.0;"/><path d="M83.4731,289.6431 Q82.8921,289.9419 82.2529,290.0913 Q81.6138,290.2407 80.9082,290.2407 Q78.4014,290.2407 77.0815,288.5889 Q75.7617,286.937 75.7617,283.8159 Q75.7617,280.6865 77.0815,279.0347 Q78.4014,277.3828 80.9082,277.3828 Q81.6138,277.3828 82.2612,277.5322 Q82.9087,277.6816 83.4731,277.9805 L83.4731,280.7031 Q82.8423,280.1221 82.2488,279.8523 Q81.6553,279.5825 81.0244,279.5825 Q79.6797,279.5825 78.9949,280.6492 Q78.3101,281.7158 78.3101,283.8159 Q78.3101,285.9077 78.9949,286.9744 Q79.6797,288.041 81.0244,288.041 Q81.6553,288.041 82.2488,287.7712 Q82.8423,287.5015 83.4731,286.9204 Z " fill="#000000"/><text fill="#000000" font-family="sans-serif" font-size="14" lengthAdjust="spacing" textLength="173" x="94.5" y="289.291">DuplicatedTaskException</text></g><!--class IllegalArgumentException--><g id="elem_IllegalArgumentException"><rect codeLine="4" fill="#F1F1F1" height="32" id="IllegalArgumentException" rx="2.5" ry="2.5" style="stroke:#181818;stroke-width:0.5;" width="210" x="83" y="176"/><ellipse cx="98" cy="192" fill="#ADD1B2" rx="11" ry="11" style="stroke:#181818;stroke-width:1.0;"/><path d="M100.9731,197.6431 Q100.3921,197.9419 99.7529,198.0913 Q99.1138,198.2407 98.4082,198.2407 Q95.9014,198.2407 94.5815,196.5889 Q93.2617,194.937 93.2617,191.8159 Q93.2617,188.6865 94.5815,187.0347 Q95.9014,185.3828 98.4082,185.3828 Q99.1138,185.3828 99.7612,185.5322 Q100.4087,185.6816 100.9731,185.9805 L100.9731,188.7031 Q100.3423,188.1221 99.7488,187.8523 Q99.1553,187.5825 98.5244,187.5825 Q97.1797,187.5825 96.4949,188.6492 Q95.8101,189.7158 95.8101,191.8159 Q95.8101,193.9077 96.4949,194.9744 Q97.1797,196.041 98.5244,196.041 Q99.1553,196.041 99.7488,195.7712 Q100.3423,195.5015 100.9731,194.9204 Z " fill="#000000"/><text fill="#000000" font-family="sans-serif" font-size="14" lengthAdjust="spacing" textLength="178" x="112" y="197.291">IllegalArgumentException</text></g><!--class InvalidCommandException--><g id="elem_InvalidCommandException"><rect codeLine="5" fill="#F1F1F1" height="32" id="InvalidCommandException" rx="2.5" ry="2.5" style="stroke:#181818;stroke-width:0.5;" width="216" x="328" y="176"/><ellipse cx="343" cy="192" fill="#ADD1B2" rx="11" ry="11" style="stroke:#181818;stroke-width:1.0;"/><path d="M345.9731,197.6431 Q345.3921,197.9419 344.7529,198.0913 Q344.1138,198.2407 343.4082,198.2407 Q340.9014,198.2407 339.5815,196.5889 Q338.2617,194.937 338.2617,191.8159 Q338.2617,188.6865 339.5815,187.0347 Q340.9014,185.3828 343.4082,185.3828 Q344.1138,185.3828 344.7612,185.5322 Q345.4087,185.6816 345.9731,185.9805 L345.9731,188.7031 Q345.3423,188.1221 344.7488,187.8523 Q344.1553,187.5825 343.5244,187.5825 Q342.1797,187.5825 341.4949,188.6492 Q340.8101,189.7158 340.8101,191.8159 Q340.8101,193.9077 341.4949,194.9744 Q342.1797,196.041 343.5244,196.041 Q344.1553,196.041 344.7488,195.7712 Q345.3423,195.5015 345.9731,194.9204 Z " fill="#000000"/><text fill="#000000" font-family="sans-serif" font-size="14" lengthAdjust="spacing" textLength="184" x="357" y="197.291">InvalidCommandException</text></g><!--class InvalidFormatException--><g id="elem_InvalidFormatException"><rect codeLine="6" fill="#F1F1F1" height="32" id="InvalidFormatException" rx="2.5" ry="2.5" style="stroke:#181818;stroke-width:0.5;" width="194" x="579" y="176"/><ellipse cx="594" cy="192" fill="#ADD1B2" rx="11" ry="11" style="stroke:#181818;stroke-width:1.0;"/><path d="M596.9731,197.6431 Q596.3921,197.9419 595.7529,198.0913 Q595.1138,198.2407 594.4082,198.2407 Q591.9014,198.2407 590.5815,196.5889 Q589.2617,194.937 589.2617,191.8159 Q589.2617,188.6865 590.5815,187.0347 Q591.9014,185.3828 594.4082,185.3828 Q595.1138,185.3828 595.7612,185.5322 Q596.4087,185.6816 596.9731,185.9805 L596.9731,188.7031 Q596.3423,188.1221 595.7488,187.8523 Q595.1553,187.5825 594.5244,187.5825 Q593.1797,187.5825 592.4949,188.6492 Q591.8101,189.7158 591.8101,191.8159 Q591.8101,193.9077 592.4949,194.9744 Q593.1797,196.041 594.5244,196.041 Q595.1553,196.041 595.7488,195.7712 Q596.3423,195.5015 596.9731,194.9204 Z " fill="#000000"/><text fill="#000000" font-family="sans-serif" font-size="14" lengthAdjust="spacing" textLength="162" x="608" y="197.291">InvalidFormatException</text></g><!--class NoRecordedModificationException--><g id="elem_NoRecordedModificationException"><rect codeLine="7" fill="#F1F1F1" height="32" id="NoRecordedModificationException" rx="2.5" ry="2.5" style="stroke:#181818;stroke-width:0.5;" width="269" x="541.5" y="268"/><ellipse cx="556.5" cy="284" fill="#ADD1B2" rx="11" ry="11" style="stroke:#181818;stroke-width:1.0;"/><path d="M559.4731,289.6431 Q558.8921,289.9419 558.2529,290.0913 Q557.6138,290.2407 556.9082,290.2407 Q554.4014,290.2407 553.0815,288.5889 Q551.7617,286.937 551.7617,283.8159 Q551.7617,280.6865 553.0815,279.0347 Q554.4014,277.3828 556.9082,277.3828 Q557.6138,277.3828 558.2612,277.5322 Q558.9087,277.6816 559.4731,277.9805 L559.4731,280.7031 Q558.8423,280.1221 558.2488,279.8523 Q557.6553,279.5825 557.0244,279.5825 Q555.6797,279.5825 554.9949,280.6492 Q554.3101,281.7158 554.3101,283.8159 Q554.3101,285.9077 554.9949,286.9744 Q555.6797,288.041 557.0244,288.041 Q557.6553,288.041 558.2488,287.7712 Q558.8423,287.5015 559.4731,286.9204 Z " fill="#000000"/><text fill="#000000" font-family="sans-serif" font-size="14" lengthAdjust="spacing" textLength="237" x="570.5" y="289.291">NoRecordedModificationException</text></g><!--reverse link StorageException to DuplicatedTaskException--><g id="link_StorageException_DuplicatedTaskException"><path codeLine="9" d="M341.0612,106.7672 C243.4612,114.1472 101.41,131.5 65,176 C36.67,210.63 94.05,247.47 133.98,267.61 " fill="none" id="StorageException-backto-DuplicatedTaskException" style="stroke:#181818;stroke-width:1.0;"/><polygon fill="none" points="359.01,105.41,340.6088,100.7843,341.5136,112.7501,359.01,105.41" style="stroke:#181818;stroke-width:1.0;"/></g><!--reverse link StorageException to IllegalArgumentException--><g id="link_StorageException_IllegalArgumentException"><path codeLine="10" d="M376.45,122.6112 C330.88,139.1512 276,159.06 230.49,175.58 " fill="none" id="StorageException-backto-IllegalArgumentException" style="stroke:#181818;stroke-width:1.0;"/><polygon fill="none" points="393.37,116.47,374.403,116.9712,378.4971,128.2512,393.37,116.47" style="stroke:#181818;stroke-width:1.0;"/></g><!--reverse link StorageException to InvalidCommandException--><g id="link_StorageException_InvalidCommandException"><path codeLine="11" d="M436,134.27 C436,150.82 436,159.08 436,175.66 " fill="none" id="StorageException-backto-InvalidCommandException" style="stroke:#181818;stroke-width:1.0;"/><polygon fill="none" points="436,116.27,430,134.27,442,134.27,436,116.27" style="stroke:#181818;stroke-width:1.0;"/></g><!--reverse link StorageException to InvalidFormatException--><g id="link_StorageException_InvalidFormatException"><path codeLine="12" d="M494.1131,122.7923 C538.2031,139.3323 590.84,159.06 634.88,175.58 " fill="none" id="StorageException-backto-InvalidFormatException" style="stroke:#181818;stroke-width:1.0;"/><polygon fill="none" points="477.26,116.47,492.0057,128.41,496.2206,117.1746,477.26,116.47" style="stroke:#181818;stroke-width:1.0;"/></g><!--reverse link StorageException to NoRecordedModificationException--><g id="link_StorageException_NoRecordedModificationException"><path codeLine="13" d="M530.6521,107.7923 C624.0821,115.9323 755.79,133.78 790,176 C819.31,212.17 758.19,247.9 714.64,267.54 " fill="none" id="StorageException-backto-NoRecordedModificationException" style="stroke:#181818;stroke-width:1.0;"/><polygon fill="none" points="512.72,106.23,530.1313,113.7697,531.1728,101.815,512.72,106.23" style="stroke:#181818;stroke-width:1.0;"/></g><!--link IllegalArgumentException to DuplicatedTaskException--><!--link InvalidFormatException to NoRecordedModificationException--><!--SRC=[ZL5DJy904BtlhvWZ74fe8SJKnAXyHQHAe70n7fRkK3QqkyrsjshK_-vMGr3J0dlPPDvxC-_DP3JQqHWXrrBPluMl4MQQIv5VlXEmBqfediFY1nxkqL_Gm6G9ZwX65j9yLyMuInACQNAZOfEYq9KKKT24ixvCKohO4SP8gfHMjdYGSuoaOiW2oVYcj6G91-OtjSOiE2PpFgwgOzRPFowg3dIEvb_4ev8JeMkr9u8zRJbZA9wPV17EqGlNUVxRuQpRM0L2YkaQLKu-oJKAHiWieK8lWoaKjbfsTbjUs-kqNBSHRWqiC0Et2stFztf-fmEBSGWbtYIDyMmAkJGgGc0yruglJJchIIQqe30tGlCKVNZCK4m6z_i234N1bHJbGiXa5Hm8lQvpoxMTgAmLM0LaW1jg4cqLaGqbOX-MuSYv85CgOcEtxGCAqfUshthphRCl]--></g></svg>